<svg width="33" height="33" viewBox="0 0 33 33" fill="none" xmlns="http://www.w3.org/2000/svg">
<g clip-path="url(#clip0_519_778)">
<path d="M16.484 -0.0200551C16.5323 -0.0199376 16.5807 -0.0198201 16.6306 -0.0196991C17.3359 -0.0168149 18.0065 0.0112147 18.6915 0.193446C18.7354 0.204506 18.7794 0.215567 18.8247 0.226963C20.2868 0.598137 21.602 1.28347 22.752 2.25595C22.8079 2.30264 22.8637 2.34933 22.9212 2.39744C24.2848 3.57212 25.2326 5.22004 25.733 6.93283C25.7568 7.01386 25.7568 7.01386 25.7811 7.09652C26.0058 7.90035 26.0636 8.69291 26.0593 9.52304C26.0591 9.57149 26.059 9.61995 26.0589 9.66987C26.0556 10.3757 26.0296 11.0453 25.8458 11.7306C25.8333 11.7797 25.8208 11.8289 25.808 11.8796C25.4239 13.3779 24.7301 14.6871 23.7188 15.8556C23.675 15.9073 23.6311 15.9591 23.5859 16.0124C23.1456 16.5223 22.6421 16.9309 22.1075 17.338C22.2738 17.5042 22.4309 17.5488 22.6513 17.632C25.4171 18.7121 27.9526 20.6082 29.713 23.0099C29.754 23.0649 29.754 23.0649 29.7959 23.121C30.2159 23.6844 30.5918 24.2674 30.9376 24.879C30.9635 24.9246 30.9894 24.9702 31.0161 25.0171C32.3995 27.4743 33.0356 30.1966 33.0001 33.0001C32.128 33.0001 31.256 33.0001 30.3575 33.0001C30.3362 32.5747 30.315 32.1493 30.293 31.711C30.2634 31.4353 30.2319 31.1663 30.1883 30.8933C30.1773 30.8236 30.1662 30.754 30.1549 30.6823C29.8006 28.5798 28.9624 26.5043 27.6505 24.8145C27.5945 24.7397 27.5387 24.6648 27.483 24.5897C27.2283 24.2488 26.9704 23.9222 26.6605 23.629C26.5434 23.5143 26.439 23.3928 26.3332 23.2677C26.1051 23.0041 25.8556 22.7812 25.588 22.5587C25.5379 22.5158 25.4878 22.4729 25.4361 22.4288C25.2533 22.2749 25.0674 22.1256 24.879 21.9786C24.8424 21.9499 24.8058 21.9213 24.7682 21.8917C23.1173 20.6169 21.1699 19.8308 19.1426 19.4005C19.0903 19.3889 19.038 19.3774 18.984 19.3654C15.6378 18.6564 11.9454 19.5036 9.07698 21.2924C8.81372 21.4668 8.56388 21.6561 8.31452 21.8497C8.23968 21.9056 8.16474 21.9614 8.08969 22.0171C7.74879 22.2719 7.42222 22.5297 7.12894 22.8397C7.01433 22.9568 6.89275 23.0612 6.76765 23.167C6.50411 23.3951 6.28117 23.6445 6.05866 23.9122C6.01579 23.9623 5.97292 24.0124 5.92875 24.064C5.77493 24.2469 5.62556 24.4328 5.47859 24.6212C5.44992 24.6577 5.42126 24.6943 5.39172 24.732C3.98093 26.5589 3.12269 28.7777 2.78364 31.0504C2.77643 31.0982 2.76921 31.1459 2.76178 31.1951C2.68211 31.7954 2.67302 32.3927 2.64265 33.0001C1.7706 33.0001 0.898546 33.0001 6.9922e-05 33.0001C-0.0818143 28.824 1.51592 24.7222 4.4079 21.6995C4.99443 21.0917 5.57696 20.4915 6.25202 19.9806C6.28675 19.9538 6.32148 19.927 6.35726 19.8995C7.74869 18.8298 9.26204 18.0392 10.8926 17.4024C10.6839 17.1907 10.4705 16.9875 10.2481 16.7901C10.0265 16.5917 9.81122 16.3909 9.60359 16.1778C9.56695 16.1441 9.53031 16.1104 9.49255 16.0756C8.39749 15.0437 7.68335 13.5702 7.26716 12.1455C7.25128 12.0915 7.23539 12.0374 7.21902 11.9818C6.99431 11.1779 6.93668 10.3854 6.94087 9.55526C6.94098 9.50687 6.9411 9.45848 6.94122 9.40862C6.94411 8.70335 6.97214 8.03276 7.15437 7.34774C7.16543 7.30379 7.17649 7.25984 7.18788 7.21456C7.55906 5.75241 8.24439 4.43723 9.21687 3.2872C9.26356 3.23136 9.31025 3.17553 9.35836 3.11801C10.533 1.75445 12.181 0.806583 13.8937 0.306239C13.9478 0.290354 14.0018 0.27447 14.0574 0.258104C14.8613 0.0333901 15.6538 -0.0242402 16.484 -0.0200551ZM11.1505 5.09188C9.87926 6.68861 9.40352 8.60118 9.62322 10.6221C9.89033 12.3624 10.8786 13.9539 12.2479 15.0441C13.8615 16.2069 15.7629 16.6954 17.7438 16.3913C19.4999 16.0575 21.1067 15.0378 22.1518 13.5876C23.2227 11.9688 23.6912 10.0786 23.3238 8.14555C22.9195 6.35858 21.8714 4.76255 20.3358 3.74668C17.2722 1.84941 13.5441 2.42084 11.1505 5.09188Z" fill="#E0EFE1"/>
</g>
<defs>
<clipPath id="clip0_519_778">
<rect width="33" height="33" fill="white"/>
</clipPath>
</defs>
</svg>
